solid 
 facet normal -1.000000e+00  0.000000e+00  0.000000e+00
   outer loop
     vertex -1.450000e-01 -1.000000e-02  8.890000e-02
     vertex -1.450000e-01  7.000000e-02  8.890000e-02
     vertex -1.450000e-01  7.000000e-02  0.000000e+00
   endloop
 endfacet
 facet normal -1.000000e+00  0.000000e+00  0.000000e+00
   outer loop
     vertex -1.450000e-01 -1.000000e-02  8.890000e-02
     vertex -1.450000e-01  7.000000e-02  0.000000e+00
     vertex -1.450000e-01 -1.000000e-02  0.000000e+00
   endloop
 endfacet
 facet normal  1.000000e+00 -0.000000e+00  0.000000e+00
   outer loop
     vertex  5.500000e-02 -1.000000e-02  8.890000e-02
     vertex  5.500000e-02  7.000000e-02  0.000000e+00
     vertex  5.500000e-02  7.000000e-02  8.890000e-02
   endloop
 endfacet
 facet normal  1.000000e+00  0.000000e+00  0.000000e+00
   outer loop
     vertex  5.500000e-02 -1.000000e-02  8.890000e-02
     vertex  5.500000e-02 -1.000000e-02  0.000000e+00
     vertex  5.500000e-02  7.000000e-02  0.000000e+00
   endloop
 endfacet
 facet normal  0.000000e+00 -1.000000e+00 -0.000000e+00
   outer loop
     vertex  5.500000e-02 -1.000000e-02  8.890000e-02
     vertex -1.450000e-01 -1.000000e-02  0.000000e+00
     vertex  5.500000e-02 -1.000000e-02  0.000000e+00
   endloop
 endfacet
 facet normal -0.000000e+00 -1.000000e+00  0.000000e+00
   outer loop
     vertex  5.500000e-02 -1.000000e-02  8.890000e-02
     vertex -1.450000e-01 -1.000000e-02  8.890000e-02
     vertex -1.450000e-01 -1.000000e-02  0.000000e+00
   endloop
 endfacet
 facet normal  0.000000e+00  1.000000e+00  0.000000e+00
   outer loop
     vertex  5.500000e-02  7.000000e-02  8.890000e-02
     vertex  5.500000e-02  7.000000e-02  0.000000e+00
     vertex -1.450000e-01  7.000000e-02  0.000000e+00
   endloop
 endfacet
 facet normal  0.000000e+00  1.000000e+00  0.000000e+00
   outer loop
     vertex  5.500000e-02  7.000000e-02  8.890000e-02
     vertex -1.450000e-01  7.000000e-02  0.000000e+00
     vertex -1.450000e-01  7.000000e-02  8.890000e-02
   endloop
 endfacet
 facet normal -0.000000e+00  0.000000e+00 -1.000000e+00
   outer loop
     vertex  5.500000e-02  7.000000e-02  0.000000e+00
     vertex -1.450000e-01 -1.000000e-02  0.000000e+00
     vertex -1.450000e-01  7.000000e-02  0.000000e+00
   endloop
 endfacet
 facet normal  0.000000e+00 -0.000000e+00 -1.000000e+00
   outer loop
     vertex  5.500000e-02  7.000000e-02  0.000000e+00
     vertex  5.500000e-02 -1.000000e-02  0.000000e+00
     vertex -1.450000e-01 -1.000000e-02  0.000000e+00
   endloop
 endfacet
 facet normal  0.000000e+00  0.000000e+00  1.000000e+00
   outer loop
     vertex  5.500000e-02  7.000000e-02  8.890000e-02
     vertex -1.450000e-01  7.000000e-02  8.890000e-02
     vertex -1.450000e-01 -1.000000e-02  8.890000e-02
   endloop
 endfacet
 facet normal  0.000000e+00  0.000000e+00  1.000000e+00
   outer loop
     vertex  5.500000e-02  7.000000e-02  8.890000e-02
     vertex -1.450000e-01 -1.000000e-02  8.890000e-02
     vertex  5.500000e-02 -1.000000e-02  8.890000e-02
   endloop
 endfacet
endsolid
