solid 
 facet normal -9.848078e-01  1.736482e-01  0.000000e+00
   outer loop
     vertex -1.445336e-01  1.533091e-02  8.890000e-02
     vertex -1.306418e-01  9.411553e-02  8.890000e-02
     vertex -1.306418e-01  9.411553e-02  0.000000e+00
   endloop
 endfacet
 facet normal -9.848078e-01  1.736482e-01  0.000000e+00
   outer loop
     vertex -1.445336e-01  1.533091e-02  8.890000e-02
     vertex -1.306418e-01  9.411553e-02  0.000000e+00
     vertex -1.445336e-01  1.533091e-02  0.000000e+00
   endloop
 endfacet
 facet normal  9.848078e-01 -1.736482e-01  0.000000e+00
   outer loop
     vertex  5.242794e-02 -1.939873e-02  8.890000e-02
     vertex  6.631980e-02  5.938589e-02  0.000000e+00
     vertex  6.631980e-02  5.938589e-02  8.890000e-02
   endloop
 endfacet
 facet normal  9.848078e-01 -1.736482e-01  0.000000e+00
   outer loop
     vertex  5.242794e-02 -1.939873e-02  8.890000e-02
     vertex  5.242794e-02 -1.939873e-02  0.000000e+00
     vertex  6.631980e-02  5.938589e-02  0.000000e+00
   endloop
 endfacet
 facet normal -1.736482e-01 -9.848078e-01 -0.000000e+00
   outer loop
     vertex  5.242794e-02 -1.939873e-02  8.890000e-02
     vertex -1.445336e-01  1.533091e-02  0.000000e+00
     vertex  5.242794e-02 -1.939873e-02  0.000000e+00
   endloop
 endfacet
 facet normal -1.736482e-01 -9.848078e-01  0.000000e+00
   outer loop
     vertex  5.242794e-02 -1.939873e-02  8.890000e-02
     vertex -1.445336e-01  1.533091e-02  8.890000e-02
     vertex -1.445336e-01  1.533091e-02  0.000000e+00
   endloop
 endfacet
 facet normal  1.736482e-01  9.848078e-01  0.000000e+00
   outer loop
     vertex  6.631980e-02  5.938589e-02  8.890000e-02
     vertex  6.631980e-02  5.938589e-02  0.000000e+00
     vertex -1.306418e-01  9.411553e-02  0.000000e+00
   endloop
 endfacet
 facet normal  1.736482e-01  9.848078e-01  0.000000e+00
   outer loop
     vertex  6.631980e-02  5.938589e-02  8.890000e-02
     vertex -1.306418e-01  9.411553e-02  0.000000e+00
     vertex -1.306418e-01  9.411553e-02  8.890000e-02
   endloop
 endfacet
 facet normal -0.000000e+00  0.000000e+00 -1.000000e+00
   outer loop
     vertex  6.631980e-02  5.938589e-02  0.000000e+00
     vertex -1.445336e-01  1.533091e-02  0.000000e+00
     vertex -1.306418e-01  9.411553e-02  0.000000e+00
   endloop
 endfacet
 facet normal  0.000000e+00  0.000000e+00 -1.000000e+00
   outer loop
     vertex  6.631980e-02  5.938589e-02  0.000000e+00
     vertex  5.242794e-02 -1.939873e-02  0.000000e+00
     vertex -1.445336e-01  1.533091e-02  0.000000e+00
   endloop
 endfacet
 facet normal  0.000000e+00  0.000000e+00  1.000000e+00
   outer loop
     vertex  6.631980e-02  5.938589e-02  8.890000e-02
     vertex -1.306418e-01  9.411553e-02  8.890000e-02
     vertex -1.445336e-01  1.533091e-02  8.890000e-02
   endloop
 endfacet
 facet normal  0.000000e+00  0.000000e+00  1.000000e+00
   outer loop
     vertex  6.631980e-02  5.938589e-02  8.890000e-02
     vertex -1.445336e-01  1.533091e-02  8.890000e-02
     vertex  5.242794e-02 -1.939873e-02  8.890000e-02
   endloop
 endfacet
endsolid
