solid 
 facet normal -9.659258e-01  2.588190e-01  0.000000e+00
   outer loop
     vertex -1.426474e-01  2.786950e-02  8.890000e-02
     vertex -1.219419e-01  1.051436e-01  8.890000e-02
     vertex -1.219419e-01  1.051436e-01  0.000000e+00
   endloop
 endfacet
 facet normal -9.659258e-01  2.588190e-01  0.000000e+00
   outer loop
     vertex -1.426474e-01  2.786950e-02  8.890000e-02
     vertex -1.219419e-01  1.051436e-01  0.000000e+00
     vertex -1.426474e-01  2.786950e-02  0.000000e+00
   endloop
 endfacet
 facet normal  9.659258e-01 -2.588190e-01  0.000000e+00
   outer loop
     vertex  5.053773e-02 -2.389431e-02  8.890000e-02
     vertex  7.124325e-02  5.337976e-02  0.000000e+00
     vertex  7.124325e-02  5.337976e-02  8.890000e-02
   endloop
 endfacet
 facet normal  9.659258e-01 -2.588190e-01  0.000000e+00
   outer loop
     vertex  5.053773e-02 -2.389431e-02  8.890000e-02
     vertex  5.053773e-02 -2.389431e-02  0.000000e+00
     vertex  7.124325e-02  5.337976e-02  0.000000e+00
   endloop
 endfacet
 facet normal -2.588190e-01 -9.659258e-01 -0.000000e+00
   outer loop
     vertex  5.053773e-02 -2.389431e-02  8.890000e-02
     vertex -1.426474e-01  2.786950e-02  0.000000e+00
     vertex  5.053773e-02 -2.389431e-02  0.000000e+00
   endloop
 endfacet
 facet normal -2.588190e-01 -9.659258e-01  0.000000e+00
   outer loop
     vertex  5.053773e-02 -2.389431e-02  8.890000e-02
     vertex -1.426474e-01  2.786950e-02  8.890000e-02
     vertex -1.426474e-01  2.786950e-02  0.000000e+00
   endloop
 endfacet
 facet normal  2.588190e-01  9.659258e-01  0.000000e+00
   outer loop
     vertex  7.124325e-02  5.337976e-02  8.890000e-02
     vertex  7.124325e-02  5.337976e-02  0.000000e+00
     vertex -1.219419e-01  1.051436e-01  0.000000e+00
   endloop
 endfacet
 facet normal  2.588190e-01  9.659258e-01  0.000000e+00
   outer loop
     vertex  7.124325e-02  5.337976e-02  8.890000e-02
     vertex -1.219419e-01  1.051436e-01  0.000000e+00
     vertex -1.219419e-01  1.051436e-01  8.890000e-02
   endloop
 endfacet
 facet normal -0.000000e+00  0.000000e+00 -1.000000e+00
   outer loop
     vertex  7.124325e-02  5.337976e-02  0.000000e+00
     vertex -1.426474e-01  2.786950e-02  0.000000e+00
     vertex -1.219419e-01  1.051436e-01  0.000000e+00
   endloop
 endfacet
 facet normal  0.000000e+00  0.000000e+00 -1.000000e+00
   outer loop
     vertex  7.124325e-02  5.337976e-02  0.000000e+00
     vertex  5.053773e-02 -2.389431e-02  0.000000e+00
     vertex -1.426474e-01  2.786950e-02  0.000000e+00
   endloop
 endfacet
 facet normal  0.000000e+00  0.000000e+00  1.000000e+00
   outer loop
     vertex  7.124325e-02  5.337976e-02  8.890000e-02
     vertex -1.219419e-01  1.051436e-01  8.890000e-02
     vertex -1.426474e-01  2.786950e-02  8.890000e-02
   endloop
 endfacet
 facet normal  0.000000e+00  0.000000e+00  1.000000e+00
   outer loop
     vertex  7.124325e-02  5.337976e-02  8.890000e-02
     vertex -1.426474e-01  2.786950e-02  8.890000e-02
     vertex  5.053773e-02 -2.389431e-02  8.890000e-02
   endloop
 endfacet
endsolid
