solid 
 facet normal -9.063078e-01  4.226183e-01  0.000000e+00
   outer loop
     vertex -1.356408e-01  5.221657e-02  8.890000e-02
     vertex -1.018314e-01  1.247212e-01  8.890000e-02
     vertex -1.018314e-01  1.247212e-01  0.000000e+00
   endloop
 endfacet
 facet normal -9.063078e-01  4.226183e-01  0.000000e+00
   outer loop
     vertex -1.356408e-01  5.221657e-02  8.890000e-02
     vertex -1.018314e-01  1.247212e-01  0.000000e+00
     vertex -1.356408e-01  5.221657e-02  0.000000e+00
   endloop
 endfacet
 facet normal  9.063078e-01 -4.226183e-01  0.000000e+00
   outer loop
     vertex  4.562075e-02 -3.230708e-02  8.890000e-02
     vertex  7.943021e-02  4.019754e-02  0.000000e+00
     vertex  7.943021e-02  4.019754e-02  8.890000e-02
   endloop
 endfacet
 facet normal  9.063078e-01 -4.226183e-01  0.000000e+00
   outer loop
     vertex  4.562075e-02 -3.230708e-02  8.890000e-02
     vertex  4.562075e-02 -3.230708e-02  0.000000e+00
     vertex  7.943021e-02  4.019754e-02  0.000000e+00
   endloop
 endfacet
 facet normal -4.226183e-01 -9.063078e-01 -0.000000e+00
   outer loop
     vertex  4.562075e-02 -3.230708e-02  8.890000e-02
     vertex -1.356408e-01  5.221657e-02  0.000000e+00
     vertex  4.562075e-02 -3.230708e-02  0.000000e+00
   endloop
 endfacet
 facet normal -4.226183e-01 -9.063078e-01  0.000000e+00
   outer loop
     vertex  4.562075e-02 -3.230708e-02  8.890000e-02
     vertex -1.356408e-01  5.221657e-02  8.890000e-02
     vertex -1.356408e-01  5.221657e-02  0.000000e+00
   endloop
 endfacet
 facet normal  4.226183e-01  9.063078e-01  0.000000e+00
   outer loop
     vertex  7.943021e-02  4.019754e-02  8.890000e-02
     vertex  7.943021e-02  4.019754e-02  0.000000e+00
     vertex -1.018314e-01  1.247212e-01  0.000000e+00
   endloop
 endfacet
 facet normal  4.226183e-01  9.063078e-01  0.000000e+00
   outer loop
     vertex  7.943021e-02  4.019754e-02  8.890000e-02
     vertex -1.018314e-01  1.247212e-01  0.000000e+00
     vertex -1.018314e-01  1.247212e-01  8.890000e-02
   endloop
 endfacet
 facet normal  0.000000e+00  0.000000e+00 -1.000000e+00
   outer loop
     vertex  7.943021e-02  4.019754e-02  0.000000e+00
     vertex -1.356408e-01  5.221657e-02  0.000000e+00
     vertex -1.018314e-01  1.247212e-01  0.000000e+00
   endloop
 endfacet
 facet normal -0.000000e+00  0.000000e+00 -1.000000e+00
   outer loop
     vertex  7.943021e-02  4.019754e-02  0.000000e+00
     vertex  4.562075e-02 -3.230708e-02  0.000000e+00
     vertex -1.356408e-01  5.221657e-02  0.000000e+00
   endloop
 endfacet
 facet normal  0.000000e+00  0.000000e+00  1.000000e+00
   outer loop
     vertex  7.943021e-02  4.019754e-02  8.890000e-02
     vertex -1.018314e-01  1.247212e-01  8.890000e-02
     vertex -1.356408e-01  5.221657e-02  8.890000e-02
   endloop
 endfacet
 facet normal  0.000000e+00  0.000000e+00  1.000000e+00
   outer loop
     vertex  7.943021e-02  4.019754e-02  8.890000e-02
     vertex -1.356408e-01  5.221657e-02  8.890000e-02
     vertex  4.562075e-02 -3.230708e-02  8.890000e-02
   endloop
 endfacet
endsolid
