solid 
 facet normal -8.870108e-01  4.617486e-01  0.000000e+00
   outer loop
     vertex -1.332341e-01  5.808344e-02  8.890000e-02
     vertex -9.629417e-02  1.290443e-01  8.890000e-02
     vertex -9.629417e-02  1.290443e-01  0.000000e+00
   endloop
 endfacet
 facet normal -8.870108e-01  4.617486e-01  0.000000e+00
   outer loop
     vertex -1.332341e-01  5.808344e-02  8.890000e-02
     vertex -9.629417e-02  1.290443e-01  0.000000e+00
     vertex -1.332341e-01  5.808344e-02  0.000000e+00
   endloop
 endfacet
 facet normal  8.870108e-01 -4.617486e-01  0.000000e+00
   outer loop
     vertex  4.416811e-02 -3.426628e-02  8.890000e-02
     vertex  8.110800e-02  3.669458e-02  0.000000e+00
     vertex  8.110800e-02  3.669458e-02  8.890000e-02
   endloop
 endfacet
 facet normal  8.870108e-01 -4.617486e-01  0.000000e+00
   outer loop
     vertex  4.416811e-02 -3.426628e-02  8.890000e-02
     vertex  4.416811e-02 -3.426628e-02  0.000000e+00
     vertex  8.110800e-02  3.669458e-02  0.000000e+00
   endloop
 endfacet
 facet normal -4.617486e-01 -8.870108e-01 -0.000000e+00
   outer loop
     vertex  4.416811e-02 -3.426628e-02  8.890000e-02
     vertex -1.332341e-01  5.808344e-02  0.000000e+00
     vertex  4.416811e-02 -3.426628e-02  0.000000e+00
   endloop
 endfacet
 facet normal -4.617486e-01 -8.870108e-01  0.000000e+00
   outer loop
     vertex  4.416811e-02 -3.426628e-02  8.890000e-02
     vertex -1.332341e-01  5.808344e-02  8.890000e-02
     vertex -1.332341e-01  5.808344e-02  0.000000e+00
   endloop
 endfacet
 facet normal  4.617486e-01  8.870108e-01  0.000000e+00
   outer loop
     vertex  8.110800e-02  3.669458e-02  8.890000e-02
     vertex  8.110800e-02  3.669458e-02  0.000000e+00
     vertex -9.629417e-02  1.290443e-01  0.000000e+00
   endloop
 endfacet
 facet normal  4.617486e-01  8.870108e-01  0.000000e+00
   outer loop
     vertex  8.110800e-02  3.669458e-02  8.890000e-02
     vertex -9.629417e-02  1.290443e-01  0.000000e+00
     vertex -9.629417e-02  1.290443e-01  8.890000e-02
   endloop
 endfacet
 facet normal  0.000000e+00  0.000000e+00 -1.000000e+00
   outer loop
     vertex  8.110800e-02  3.669458e-02  0.000000e+00
     vertex -1.332341e-01  5.808344e-02  0.000000e+00
     vertex -9.629417e-02  1.290443e-01  0.000000e+00
   endloop
 endfacet
 facet normal -0.000000e+00  0.000000e+00 -1.000000e+00
   outer loop
     vertex  8.110800e-02  3.669458e-02  0.000000e+00
     vertex  4.416811e-02 -3.426628e-02  0.000000e+00
     vertex -1.332341e-01  5.808344e-02  0.000000e+00
   endloop
 endfacet
 facet normal  0.000000e+00  0.000000e+00  1.000000e+00
   outer loop
     vertex  8.110800e-02  3.669458e-02  8.890000e-02
     vertex -9.629417e-02  1.290443e-01  8.890000e-02
     vertex -1.332341e-01  5.808344e-02  8.890000e-02
   endloop
 endfacet
 facet normal  0.000000e+00  0.000000e+00  1.000000e+00
   outer loop
     vertex  8.110800e-02  3.669458e-02  8.890000e-02
     vertex -1.332341e-01  5.808344e-02  8.890000e-02
     vertex  4.416811e-02 -3.426628e-02  8.890000e-02
   endloop
 endfacet
endsolid
