solid 
 facet normal -8.660254e-01  5.000000e-01  0.000000e+00
   outer loop
     vertex -1.305737e-01  6.383975e-02  8.890000e-02
     vertex -9.057368e-02  1.331218e-01  8.890000e-02
     vertex -9.057368e-02  1.331218e-01  0.000000e+00
   endloop
 endfacet
 facet normal -8.660254e-01  5.000000e-01  0.000000e+00
   outer loop
     vertex -1.305737e-01  6.383975e-02  8.890000e-02
     vertex -9.057368e-02  1.331218e-01  0.000000e+00
     vertex -1.305737e-01  6.383975e-02  0.000000e+00
   endloop
 endfacet
 facet normal  8.660254e-01 -5.000000e-01  0.000000e+00
   outer loop
     vertex  4.263140e-02 -3.616025e-02  8.890000e-02
     vertex  8.263140e-02  3.312178e-02  0.000000e+00
     vertex  8.263140e-02  3.312178e-02  8.890000e-02
   endloop
 endfacet
 facet normal  8.660254e-01 -5.000000e-01  0.000000e+00
   outer loop
     vertex  4.263140e-02 -3.616025e-02  8.890000e-02
     vertex  4.263140e-02 -3.616025e-02  0.000000e+00
     vertex  8.263140e-02  3.312178e-02  0.000000e+00
   endloop
 endfacet
 facet normal -5.000000e-01 -8.660254e-01 -0.000000e+00
   outer loop
     vertex  4.263140e-02 -3.616025e-02  8.890000e-02
     vertex -1.305737e-01  6.383975e-02  0.000000e+00
     vertex  4.263140e-02 -3.616025e-02  0.000000e+00
   endloop
 endfacet
 facet normal -5.000000e-01 -8.660254e-01  0.000000e+00
   outer loop
     vertex  4.263140e-02 -3.616025e-02  8.890000e-02
     vertex -1.305737e-01  6.383975e-02  8.890000e-02
     vertex -1.305737e-01  6.383975e-02  0.000000e+00
   endloop
 endfacet
 facet normal  5.000000e-01  8.660254e-01  0.000000e+00
   outer loop
     vertex  8.263140e-02  3.312178e-02  8.890000e-02
     vertex  8.263140e-02  3.312178e-02  0.000000e+00
     vertex -9.057368e-02  1.331218e-01  0.000000e+00
   endloop
 endfacet
 facet normal  5.000000e-01  8.660254e-01  0.000000e+00
   outer loop
     vertex  8.263140e-02  3.312178e-02  8.890000e-02
     vertex -9.057368e-02  1.331218e-01  0.000000e+00
     vertex -9.057368e-02  1.331218e-01  8.890000e-02
   endloop
 endfacet
 facet normal  0.000000e+00  0.000000e+00 -1.000000e+00
   outer loop
     vertex  8.263140e-02  3.312178e-02  0.000000e+00
     vertex -1.305737e-01  6.383975e-02  0.000000e+00
     vertex -9.057368e-02  1.331218e-01  0.000000e+00
   endloop
 endfacet
 facet normal -0.000000e+00  0.000000e+00 -1.000000e+00
   outer loop
     vertex  8.263140e-02  3.312178e-02  0.000000e+00
     vertex  4.263140e-02 -3.616025e-02  0.000000e+00
     vertex -1.305737e-01  6.383975e-02  0.000000e+00
   endloop
 endfacet
 facet normal  0.000000e+00  0.000000e+00  1.000000e+00
   outer loop
     vertex  8.263140e-02  3.312178e-02  8.890000e-02
     vertex -9.057368e-02  1.331218e-01  8.890000e-02
     vertex -1.305737e-01  6.383975e-02  8.890000e-02
   endloop
 endfacet
 facet normal  0.000000e+00  0.000000e+00  1.000000e+00
   outer loop
     vertex  8.263140e-02  3.312178e-02  8.890000e-02
     vertex -1.305737e-01  6.383975e-02  8.890000e-02
     vertex  4.263140e-02 -3.616025e-02  8.890000e-02
   endloop
 endfacet
endsolid
