solid 
 facet normal -8.433914e-01  5.372996e-01  0.000000e+00
   outer loop
     vertex -1.276648e-01  6.947453e-02  8.890000e-02
     vertex -8.468079e-02  1.369458e-01  8.890000e-02
     vertex -8.468079e-02  1.369458e-01  0.000000e+00
   endloop
 endfacet
 facet normal -8.433914e-01  5.372996e-01  0.000000e+00
   outer loop
     vertex -1.276648e-01  6.947453e-02  8.890000e-02
     vertex -8.468079e-02  1.369458e-01  0.000000e+00
     vertex -1.276648e-01  6.947453e-02  0.000000e+00
   endloop
 endfacet
 facet normal  8.433914e-01 -5.372996e-01  0.000000e+00
   outer loop
     vertex  4.101353e-02 -3.798539e-02  8.890000e-02
     vertex  8.399750e-02  2.948592e-02  0.000000e+00
     vertex  8.399750e-02  2.948592e-02  8.890000e-02
   endloop
 endfacet
 facet normal  8.433914e-01 -5.372996e-01  0.000000e+00
   outer loop
     vertex  4.101353e-02 -3.798539e-02  8.890000e-02
     vertex  4.101353e-02 -3.798539e-02  0.000000e+00
     vertex  8.399750e-02  2.948592e-02  0.000000e+00
   endloop
 endfacet
 facet normal -5.372996e-01 -8.433914e-01 -0.000000e+00
   outer loop
     vertex  4.101353e-02 -3.798539e-02  8.890000e-02
     vertex -1.276648e-01  6.947453e-02  0.000000e+00
     vertex  4.101353e-02 -3.798539e-02  0.000000e+00
   endloop
 endfacet
 facet normal -5.372996e-01 -8.433914e-01  0.000000e+00
   outer loop
     vertex  4.101353e-02 -3.798539e-02  8.890000e-02
     vertex -1.276648e-01  6.947453e-02  8.890000e-02
     vertex -1.276648e-01  6.947453e-02  0.000000e+00
   endloop
 endfacet
 facet normal  5.372996e-01  8.433914e-01  0.000000e+00
   outer loop
     vertex  8.399750e-02  2.948592e-02  8.890000e-02
     vertex  8.399750e-02  2.948592e-02  0.000000e+00
     vertex -8.468079e-02  1.369458e-01  0.000000e+00
   endloop
 endfacet
 facet normal  5.372996e-01  8.433914e-01  0.000000e+00
   outer loop
     vertex  8.399750e-02  2.948592e-02  8.890000e-02
     vertex -8.468079e-02  1.369458e-01  0.000000e+00
     vertex -8.468079e-02  1.369458e-01  8.890000e-02
   endloop
 endfacet
 facet normal  0.000000e+00  0.000000e+00 -1.000000e+00
   outer loop
     vertex  8.399750e-02  2.948592e-02  0.000000e+00
     vertex -1.276648e-01  6.947453e-02  0.000000e+00
     vertex -8.468079e-02  1.369458e-01  0.000000e+00
   endloop
 endfacet
 facet normal -0.000000e+00  0.000000e+00 -1.000000e+00
   outer loop
     vertex  8.399750e-02  2.948592e-02  0.000000e+00
     vertex  4.101353e-02 -3.798539e-02  0.000000e+00
     vertex -1.276648e-01  6.947453e-02  0.000000e+00
   endloop
 endfacet
 facet normal  0.000000e+00  0.000000e+00  1.000000e+00
   outer loop
     vertex  8.399750e-02  2.948592e-02  8.890000e-02
     vertex -8.468079e-02  1.369458e-01  8.890000e-02
     vertex -1.276648e-01  6.947453e-02  8.890000e-02
   endloop
 endfacet
 facet normal  0.000000e+00  0.000000e+00  1.000000e+00
   outer loop
     vertex  8.399750e-02  2.948592e-02  8.890000e-02
     vertex -1.276648e-01  6.947453e-02  8.890000e-02
     vertex  4.101353e-02 -3.798539e-02  8.890000e-02
   endloop
 endfacet
endsolid
