solid 
 facet normal -7.933533e-01  6.087614e-01  0.000000e+00
   outer loop
     vertex -1.211238e-01  8.033687e-02  8.890000e-02
     vertex -7.242293e-02  1.438051e-01  8.890000e-02
     vertex -7.242293e-02  1.438051e-01  0.000000e+00
   endloop
 endfacet
 facet normal -7.933533e-01  6.087614e-01  0.000000e+00
   outer loop
     vertex -1.211238e-01  8.033687e-02  8.890000e-02
     vertex -7.242293e-02  1.438051e-01  0.000000e+00
     vertex -1.211238e-01  8.033687e-02  0.000000e+00
   endloop
 endfacet
 facet normal  7.933533e-01 -6.087614e-01  0.000000e+00
   outer loop
     vertex  3.754682e-02 -4.141541e-02  8.890000e-02
     vertex  8.624773e-02  2.205286e-02  0.000000e+00
     vertex  8.624773e-02  2.205286e-02  8.890000e-02
   endloop
 endfacet
 facet normal  7.933533e-01 -6.087614e-01  0.000000e+00
   outer loop
     vertex  3.754682e-02 -4.141541e-02  8.890000e-02
     vertex  3.754682e-02 -4.141541e-02  0.000000e+00
     vertex  8.624773e-02  2.205286e-02  0.000000e+00
   endloop
 endfacet
 facet normal -6.087614e-01 -7.933533e-01 -0.000000e+00
   outer loop
     vertex  3.754682e-02 -4.141541e-02  8.890000e-02
     vertex -1.211238e-01  8.033687e-02  0.000000e+00
     vertex  3.754682e-02 -4.141541e-02  0.000000e+00
   endloop
 endfacet
 facet normal -6.087614e-01 -7.933533e-01  0.000000e+00
   outer loop
     vertex  3.754682e-02 -4.141541e-02  8.890000e-02
     vertex -1.211238e-01  8.033687e-02  8.890000e-02
     vertex -1.211238e-01  8.033687e-02  0.000000e+00
   endloop
 endfacet
 facet normal  6.087614e-01  7.933533e-01  0.000000e+00
   outer loop
     vertex  8.624773e-02  2.205286e-02  8.890000e-02
     vertex  8.624773e-02  2.205286e-02  0.000000e+00
     vertex -7.242293e-02  1.438051e-01  0.000000e+00
   endloop
 endfacet
 facet normal  6.087614e-01  7.933533e-01  0.000000e+00
   outer loop
     vertex  8.624773e-02  2.205286e-02  8.890000e-02
     vertex -7.242293e-02  1.438051e-01  0.000000e+00
     vertex -7.242293e-02  1.438051e-01  8.890000e-02
   endloop
 endfacet
 facet normal  0.000000e+00  0.000000e+00 -1.000000e+00
   outer loop
     vertex  8.624773e-02  2.205286e-02  0.000000e+00
     vertex -1.211238e-01  8.033687e-02  0.000000e+00
     vertex -7.242293e-02  1.438051e-01  0.000000e+00
   endloop
 endfacet
 facet normal -0.000000e+00  0.000000e+00 -1.000000e+00
   outer loop
     vertex  8.624773e-02  2.205286e-02  0.000000e+00
     vertex  3.754682e-02 -4.141541e-02  0.000000e+00
     vertex -1.211238e-01  8.033687e-02  0.000000e+00
   endloop
 endfacet
 facet normal  0.000000e+00  0.000000e+00  1.000000e+00
   outer loop
     vertex  8.624773e-02  2.205286e-02  8.890000e-02
     vertex -7.242293e-02  1.438051e-01  8.890000e-02
     vertex -1.211238e-01  8.033687e-02  8.890000e-02
   endloop
 endfacet
 facet normal  0.000000e+00  0.000000e+00  1.000000e+00
   outer loop
     vertex  8.624773e-02  2.205286e-02  8.890000e-02
     vertex -1.211238e-01  8.033687e-02  8.890000e-02
     vertex  3.754682e-02 -4.141541e-02  8.890000e-02
   endloop
 endfacet
endsolid
