solid 
 facet normal -7.660444e-01  6.427876e-01  0.000000e+00
   outer loop
     vertex -1.175043e-01  8.554376e-02  8.890000e-02
     vertex -6.608131e-02  1.468273e-01  8.890000e-02
     vertex -6.608131e-02  1.468273e-01  0.000000e+00
   endloop
 endfacet
 facet normal -7.660444e-01  6.427876e-01  0.000000e+00
   outer loop
     vertex -1.175043e-01  8.554376e-02  8.890000e-02
     vertex -6.608131e-02  1.468273e-01  0.000000e+00
     vertex -1.175043e-01  8.554376e-02  0.000000e+00
   endloop
 endfacet
 facet normal  7.660444e-01 -6.427876e-01  0.000000e+00
   outer loop
     vertex  3.570457e-02 -4.301376e-02  8.890000e-02
     vertex  8.712758e-02  1.826979e-02  0.000000e+00
     vertex  8.712758e-02  1.826979e-02  8.890000e-02
   endloop
 endfacet
 facet normal  7.660444e-01 -6.427876e-01  0.000000e+00
   outer loop
     vertex  3.570457e-02 -4.301376e-02  8.890000e-02
     vertex  3.570457e-02 -4.301376e-02  0.000000e+00
     vertex  8.712758e-02  1.826979e-02  0.000000e+00
   endloop
 endfacet
 facet normal -6.427876e-01 -7.660444e-01 -0.000000e+00
   outer loop
     vertex  3.570457e-02 -4.301376e-02  8.890000e-02
     vertex -1.175043e-01  8.554376e-02  0.000000e+00
     vertex  3.570457e-02 -4.301376e-02  0.000000e+00
   endloop
 endfacet
 facet normal -6.427876e-01 -7.660444e-01  0.000000e+00
   outer loop
     vertex  3.570457e-02 -4.301376e-02  8.890000e-02
     vertex -1.175043e-01  8.554376e-02  8.890000e-02
     vertex -1.175043e-01  8.554376e-02  0.000000e+00
   endloop
 endfacet
 facet normal  6.427876e-01  7.660444e-01  0.000000e+00
   outer loop
     vertex  8.712758e-02  1.826979e-02  8.890000e-02
     vertex  8.712758e-02  1.826979e-02  0.000000e+00
     vertex -6.608131e-02  1.468273e-01  0.000000e+00
   endloop
 endfacet
 facet normal  6.427876e-01  7.660444e-01  0.000000e+00
   outer loop
     vertex  8.712758e-02  1.826979e-02  8.890000e-02
     vertex -6.608131e-02  1.468273e-01  0.000000e+00
     vertex -6.608131e-02  1.468273e-01  8.890000e-02
   endloop
 endfacet
 facet normal  0.000000e+00  0.000000e+00 -1.000000e+00
   outer loop
     vertex  8.712758e-02  1.826979e-02  0.000000e+00
     vertex -1.175043e-01  8.554376e-02  0.000000e+00
     vertex -6.608131e-02  1.468273e-01  0.000000e+00
   endloop
 endfacet
 facet normal -0.000000e+00  0.000000e+00 -1.000000e+00
   outer loop
     vertex  8.712758e-02  1.826979e-02  0.000000e+00
     vertex  3.570457e-02 -4.301376e-02  0.000000e+00
     vertex -1.175043e-01  8.554376e-02  0.000000e+00
   endloop
 endfacet
 facet normal  0.000000e+00  0.000000e+00  1.000000e+00
   outer loop
     vertex  8.712758e-02  1.826979e-02  8.890000e-02
     vertex -6.608131e-02  1.468273e-01  8.890000e-02
     vertex -1.175043e-01  8.554376e-02  8.890000e-02
   endloop
 endfacet
 facet normal  0.000000e+00  0.000000e+00  1.000000e+00
   outer loop
     vertex  8.712758e-02  1.826979e-02  8.890000e-02
     vertex -1.175043e-01  8.554376e-02  8.890000e-02
     vertex  3.570457e-02 -4.301376e-02  8.890000e-02
   endloop
 endfacet
endsolid
