solid 
 facet normal -7.071068e-01  7.071068e-01  0.000000e+00
   outer loop
     vertex -1.096016e-01  9.545942e-02  8.890000e-02
     vertex -5.303301e-02  1.520280e-01  8.890000e-02
     vertex -5.303301e-02  1.520280e-01  0.000000e+00
   endloop
 endfacet
 facet normal -7.071068e-01  7.071068e-01  0.000000e+00
   outer loop
     vertex -1.096016e-01  9.545942e-02  8.890000e-02
     vertex -5.303301e-02  1.520280e-01  0.000000e+00
     vertex -1.096016e-01  9.545942e-02  0.000000e+00
   endloop
 endfacet
 facet normal  7.071068e-01 -7.071068e-01  0.000000e+00
   outer loop
     vertex  3.181981e-02 -4.596194e-02  8.890000e-02
     vertex  8.838835e-02  1.060660e-02  0.000000e+00
     vertex  8.838835e-02  1.060660e-02  8.890000e-02
   endloop
 endfacet
 facet normal  7.071068e-01 -7.071068e-01  0.000000e+00
   outer loop
     vertex  3.181981e-02 -4.596194e-02  8.890000e-02
     vertex  3.181981e-02 -4.596194e-02  0.000000e+00
     vertex  8.838835e-02  1.060660e-02  0.000000e+00
   endloop
 endfacet
 facet normal -7.071068e-01 -7.071068e-01 -0.000000e+00
   outer loop
     vertex  3.181981e-02 -4.596194e-02  8.890000e-02
     vertex -1.096016e-01  9.545942e-02  0.000000e+00
     vertex  3.181981e-02 -4.596194e-02  0.000000e+00
   endloop
 endfacet
 facet normal -7.071068e-01 -7.071068e-01  0.000000e+00
   outer loop
     vertex  3.181981e-02 -4.596194e-02  8.890000e-02
     vertex -1.096016e-01  9.545942e-02  8.890000e-02
     vertex -1.096016e-01  9.545942e-02  0.000000e+00
   endloop
 endfacet
 facet normal  7.071068e-01  7.071068e-01  0.000000e+00
   outer loop
     vertex  8.838835e-02  1.060660e-02  8.890000e-02
     vertex  8.838835e-02  1.060660e-02  0.000000e+00
     vertex -5.303301e-02  1.520280e-01  0.000000e+00
   endloop
 endfacet
 facet normal  7.071068e-01  7.071068e-01  0.000000e+00
   outer loop
     vertex  8.838835e-02  1.060660e-02  8.890000e-02
     vertex -5.303301e-02  1.520280e-01  0.000000e+00
     vertex -5.303301e-02  1.520280e-01  8.890000e-02
   endloop
 endfacet
 facet normal  0.000000e+00  0.000000e+00 -1.000000e+00
   outer loop
     vertex  8.838835e-02  1.060660e-02  0.000000e+00
     vertex -1.096016e-01  9.545942e-02  0.000000e+00
     vertex -5.303301e-02  1.520280e-01  0.000000e+00
   endloop
 endfacet
 facet normal -0.000000e+00  0.000000e+00 -1.000000e+00
   outer loop
     vertex  8.838835e-02  1.060660e-02  0.000000e+00
     vertex  3.181981e-02 -4.596194e-02  0.000000e+00
     vertex -1.096016e-01  9.545942e-02  0.000000e+00
   endloop
 endfacet
 facet normal  0.000000e+00  0.000000e+00  1.000000e+00
   outer loop
     vertex  8.838835e-02  1.060660e-02  8.890000e-02
     vertex -5.303301e-02  1.520280e-01  8.890000e-02
     vertex -1.096016e-01  9.545942e-02  8.890000e-02
   endloop
 endfacet
 facet normal  0.000000e+00  0.000000e+00  1.000000e+00
   outer loop
     vertex  8.838835e-02  1.060660e-02  8.890000e-02
     vertex -1.096016e-01  9.545942e-02  8.890000e-02
     vertex  3.181981e-02 -4.596194e-02  8.890000e-02
   endloop
 endfacet
endsolid
